<?xml version="1.0" encoding="iso-8859-1"?>
<!-- Generator: Adobe Illustrator 18.0.0, SVG Export Plug-In . SVG Version: 6.00 Build 0)  -->
<!DOCTYPE svg PUBLIC "-//W3C//DTD SVG 1.1//EN" "http://www.w3.org/Graphics/SVG/1.1/DTD/svg11.dtd">
<svg version="1.1" id="Capa_1" xmlns="http://www.w3.org/2000/svg" xmlns:xlink="http://www.w3.org/1999/xlink" x="0px" y="0px"
	 viewBox="0 0 483.301 483.301" style="enable-background:new 0 0 483.301 483.301;" xml:space="preserve" fill='#171717'>
<g>
	<path d="M229.941,143.515c0-4.143-3.357-7.5-7.5-7.5s-7.5,3.357-7.5,7.5c0,12.123,8.122,22.379,19.209,25.629v2.479
		c0,4.143,3.357,7.5,7.5,7.5s7.5-3.357,7.5-7.5v-2.48c11.086-3.25,19.208-13.505,19.208-25.628c0-12.124-8.122-22.379-19.208-25.629
		V96.117c2.569,2.149,4.208,5.375,4.208,8.979c0,4.143,3.357,7.5,7.5,7.5s7.5-3.357,7.5-7.5c0-12.123-8.122-22.378-19.208-25.628
		v-2.48c0-4.143-3.357-7.5-7.5-7.5s-7.5,3.357-7.5,7.5v2.479c-11.087,3.25-19.209,13.506-19.209,25.629
		c0,12.124,8.122,22.38,19.209,25.629v21.769C231.581,150.345,229.941,147.119,229.941,143.515z M253.358,143.515
		c0,3.604-1.639,6.83-4.208,8.979v-17.959C251.719,136.684,253.358,139.911,253.358,143.515z M229.941,105.097
		c0-3.604,1.639-6.831,4.209-8.98v17.96C231.581,111.928,229.941,108.701,229.941,105.097z"/>
	<path d="M339.245,345.9H256.65v-6.009c43.783-5.026,77.899-42.309,77.899-87.417c0-5.522-4.478-10-10-10
		c-27.306,0-51.746,12.501-67.899,32.08v-26.851c61.494-7.43,109.306-59.933,109.306-123.398C365.956,55.764,310.192,0,241.65,0
		S117.345,55.764,117.345,124.306c0,63.465,47.811,115.968,109.306,123.398V345.9h-82.595c-8.284,0-15,6.716-15,15v76.437
		c0,25.345,20.619,45.964,45.963,45.964h133.263c25.345,0,45.964-20.619,45.964-45.964V360.9
		C354.245,352.616,347.529,345.9,339.245,345.9z M313.683,263.342c-4.647,28.809-27.457,51.618-56.266,56.266
		C262.064,290.799,284.874,267.989,313.683,263.342z M292.988,58.831c-11.68-9.178-25.858-15.299-41.337-17.162V30.53
		c18.518,1.961,35.451,9.305,49.207,20.431L292.988,58.831z M231.65,41.668c-15.479,1.863-29.657,7.984-41.337,17.162l-7.87-7.87
		c13.756-11.126,30.689-18.47,49.207-20.431V41.668z M241.65,61.047c34.881,0,63.259,28.378,63.259,63.259
		s-28.378,63.259-63.259,63.259s-63.259-28.378-63.259-63.259S206.77,61.047,241.65,61.047z M251.65,206.943
		c15.477-1.862,29.653-7.982,41.332-17.158l7.87,7.87c-13.755,11.124-30.686,18.465-49.201,20.426V206.943z M190.318,189.785
		c11.679,9.176,25.855,15.296,41.332,17.158v11.138c-18.516-1.961-35.447-9.303-49.202-20.427L190.318,189.785z M314.995,183.513
		l-7.87-7.87c9.177-11.679,15.298-25.855,17.161-41.333h11.138C333.464,152.827,326.12,169.758,314.995,183.513z M335.426,114.311
		h-11.138c-1.861-15.479-7.982-29.656-17.158-41.337l7.869-7.87C326.124,78.86,333.466,95.793,335.426,114.311z M168.302,65.104
		l7.87,7.87c-9.177,11.681-15.297,25.858-17.158,41.337h-11.138C149.834,95.793,157.177,78.86,168.302,65.104z M147.876,134.311
		h11.138c1.863,15.477,7.984,29.653,17.161,41.332l-7.87,7.87C157.181,169.757,149.837,152.826,147.876,134.311z M324.245,375.9
		v8.804H159.056V375.9H324.245z M308.281,453.301H175.019c-8.802,0-15.963-7.161-15.963-15.964v-32.633h165.189v32.633
		C324.245,446.14,317.084,453.301,308.281,453.301z"/>
</g>
<g>
</g>
<g>
</g>
<g>
</g>
<g>
</g>
<g>
</g>
<g>
</g>
<g>
</g>
<g>
</g>
<g>
</g>
<g>
</g>
<g>
</g>
<g>
</g>
<g>
</g>
<g>
</g>
<g>
</g>
</svg>
